<svg xmlns="http://www.w3.org/2000/svg" xmlns:xlink="http://www.w3.org/1999/xlink" version="1.1" x="0px" y="0px" viewBox="0 0 48 60" style="enable-background:new 0 0 48 48;" xml:space="preserve"><g style="" display="none"><path style="" d="M24,45.313c-0.512,0-1.024-0.195-1.414-0.586L11.858,34H4c-1.104,0-2-0.896-2-2V4   c0-1.104,0.896-2,2-2h40c1.104,0,2,0.896,2,2v28c0,1.104-0.896,2-2,2h-7.858L25.414,44.728C25.023,45.118,24.512,45.313,24,45.313z    M6,30h6.687c0.53,0,1.039,0.211,1.414,0.586L24,40.485l9.899-9.899C34.274,30.211,34.783,30,35.313,30H42V6H6V30z" display="inline"/><path style="" d="M32,14H16c-1.104,0-2-0.896-2-2s0.896-2,2-2h16c1.104,0,2,0.896,2,2   S33.104,14,32,14z" display="inline"/><path style="" d="M32,26H16c-1.104,0-2-0.896-2-2s0.896-2,2-2h16c1.104,0,2,0.896,2,2   S33.104,26,32,26z" display="inline"/></g><g style="" display="none"><path style="" d="M24,2c-0.07,0-0.14,0-0.2,0.01C11.76,2.11,2,11.94,2,24s9.76,21.89,21.8,21.99   C23.86,46,23.93,46,24,46c1.1,0,2-0.9,2-2v-6.11c8.98-1,16-8.65,16-17.89C42,10.07,33.92,2,24,2z M24,34c-1.1,0-2,0.9-2,2v5.89   c-8.99-1-16-8.65-16-17.89c0-9.93,8.07-18,18-18c7.72,0,14,6.28,14,14C38,27.72,31.72,34,24,34z" display="inline"/><circle style="" cx="28" cy="20" r="4" display="inline"/><circle style="" cx="16" cy="20" r="4" display="inline"/></g><g style="" display="none"><path style="" d="M44,2H20c-5.51,0-10,4.49-10,10v24c0,3.31-2.69,6-6,6c-1.1,0-2,0.9-2,2   c0,1.1,0.9,2,2,2h24c5.51,0,10-4.49,10-10V12c0-3.31,2.69-6,6-6c1.1,0,2-0.9,2-2C46,2.9,45.1,2,44,2z M34,12v24c0,3.31-2.69,6-6,6   H12c1.25-1.67,2-3.75,2-6V12c0-3.31,2.69-6,6-6h16C34.75,7.67,34,9.75,34,12z" display="inline"/><path style="" d="M30,20c0,1.1-0.9,2-2,2h-8c-1.1,0-2-0.9-2-2c0-1.1,0.9-2,2-2h8   C29.1,18,30,18.9,30,20z" display="inline"/><path style="" d="M30,28c0,1.1-0.9,2-2,2h-8c-1.1,0-2-0.9-2-2c0-1.1,0.9-2,2-2h8   C29.1,26,30,26.9,30,28z" display="inline"/></g><g style="" display="none"><path style="" d="M24,46C11.869,46,2,36.131,2,24S11.869,2,24,2s22,9.869,22,22S36.131,46,24,46z    M24,6C14.075,6,6,14.075,6,24c0,9.925,8.075,18,18,18c9.925,0,18-8.075,18-18C42,14.075,33.925,6,24,6z" display="inline"/><path style="" d="M19.999,34c-0.301,0-0.606-0.067-0.893-0.211c-0.988-0.494-1.388-1.695-0.895-2.684   L22,23.528V12c0-1.104,0.896-2,2-2s2,0.896,2,2v12c0,0.311-0.072,0.617-0.211,0.895l-4,8C21.438,33.596,20.732,34,19.999,34z" display="inline"/></g><g style="" display="none"><path style="" d="M44,6H4C2.9,6,2,6.9,2,8v28c0,1.1,0.9,2,2,2h40c1.1,0,2-0.9,2-2V8   C46,6.9,45.1,6,44,6z M6,10h36v4H6V10z M42,34H6V22h36V34z" display="inline"/></g><g style="" display="none"><path style="" d="M36,6H4C2.9,6,2,6.9,2,8v24c0,1.1,0.9,2,2,2h20c1.1,0,2-0.9,2-2c0-1.1-0.9-2-2-2H6   V20h28c0,1.1,0.9,2,2,2s2-0.9,2-2V8C38,6.9,37.1,6,36,6z M6,14v-4h28v4H6z" display="inline"/><path style="" d="M44,32c0,1.1-0.9,2-2,2h-4v4c0,1.1-0.9,2-2,2s-2-0.9-2-2v-4h-4c-1.1,0-2-0.9-2-2   c0-1.1,0.9-2,2-2h4v-4c0-1.1,0.9-2,2-2s2,0.9,2,2v4h4C43.1,30,44,30.9,44,32z" display="inline"/></g><g style="" display="none"><path style="" d="M46.02,23.97C46.02,15.98,46,8,46,8c0-1.11-0.9-2-2-2H24.47l-7.58-3.79   C16.62,2.07,16.31,2,16,2H4C2.9,2,2,2.9,2,4v36c0,1.1,0.9,2,2,2h40c0.53,0,1.04-0.21,1.42-0.59c0.6-0.6,0.6-0.6,0.61-6.44   C46.03,31.97,46.03,27.97,46.02,23.97z M6,6h9.53l7.58,3.79C23.38,9.93,23.69,10,24,10h18c0,1.91,0.01,3.94,0.01,6H6V6z M42.02,38   H6V20h36.01C42.03,27.45,42.03,34.68,42.02,38z" display="inline"/></g><g style="" display="none"><path style="" d="M36,46c-0.521,0-1.031-0.203-1.414-0.586L24,34.828L13.414,45.414   c-0.572,0.572-1.434,0.743-2.179,0.434C10.487,45.538,10,44.809,10,44V4c0-1.104,0.896-2,2-2h24c1.104,0,2,0.896,2,2v40   c0,0.809-0.487,1.538-1.234,1.848C36.518,45.95,36.258,46,36,46z M24,30c0.512,0,1.023,0.195,1.414,0.586L34,39.172V6H14v33.172   l8.586-8.586C22.976,30.195,23.488,30,24,30z" display="inline"/></g><g style="" display="none"><path style="" d="M45.96,41.61l-6-30C39.77,10.67,38.95,10,38,10h-4.2c-0.93-4.56-4.98-8-9.8-8   s-8.87,3.44-9.8,8H10c-0.95,0-1.77,0.67-1.96,1.61l-6,30c-0.12,0.59,0.03,1.19,0.41,1.66C2.83,43.73,3.4,44,4,44h40   c0.6,0,1.17-0.27,1.55-0.73C45.93,42.8,46.08,42.2,45.96,41.61z M24,6c2.61,0,4.84,1.67,5.65,4h-11.3C19.16,7.67,21.39,6,24,6z    M6.44,40l5.2-26h24.72l5.2,26H6.44z" display="inline"/><circle style="" cx="16" cy="18" r="2" display="inline"/><circle style="" cx="32" cy="18" r="2" display="inline"/></g><g style="" display="none"><circle style="" cx="12" cy="30" r="2" display="inline"/><circle style="" cx="36" cy="30" r="2" display="inline"/><path style="" d="M44,22h-1.53l-0.39-1.26l3.33-3.33c0.79-0.78,0.79-2.04,0-2.82   c-0.78-0.79-2.04-0.79-2.82,0l-1.85,1.85L37.91,7.4C37.65,6.57,36.88,6,36,6H12c-0.88,0-1.65,0.57-1.91,1.4l-2.83,9.04l-1.85-1.85   c-0.78-0.79-2.04-0.79-2.82,0c-0.79,0.78-0.79,2.04,0,2.82l3.33,3.33L5.53,22H4c-1.1,0-2,0.9-2,2v12c0,1.1,0.9,2,2,2h4v1   c0,2.21,1.79,4,4,4s4-1.79,4-4v-1h16v1c0,2.21,1.79,4,4,4s4-1.79,4-4v-1h4c1.1,0,2-0.9,2-2V24C46,22.9,45.1,22,44,22z M13.47,10   h21.06l3.75,12H9.72L13.47,10z M42,34H6v-8h36V34z" display="inline"/><path style="" d="M28,32h-8c-1.104,0-2-0.896-2-2s0.896-2,2-2h8c1.104,0,2,0.896,2,2   S29.104,32,28,32z" display="inline"/></g><g style="" display="none"><path style="" d="M43.999,46c-0.354,0-0.709-0.094-1.028-0.285L24,34.332L5.029,45.715   c-0.762,0.458-1.736,0.357-2.388-0.247c-0.652-0.604-0.828-1.566-0.43-2.362l20-40C22.55,2.428,23.243,2,24,2   s1.45,0.428,1.789,1.105l20,40c0.397,0.796,0.223,1.758-0.43,2.362C44.979,45.819,44.491,46,43.999,46z M24,30   c0.356,0,0.712,0.095,1.029,0.285l14.11,8.466L24,8.472L8.86,38.751l14.111-8.466C23.288,30.095,23.644,30,24,30z" display="inline"/></g><g style="" display="none"><path style="" d="M23.515,43.456c-0.512,0-1.024-0.195-1.414-0.586L5.13,25.899   c-5.458-5.458-5.458-14.34,0-19.799c5.01-5.01,12.902-5.421,18.385-1.237c5.483-4.184,13.375-3.772,18.385,1.237   c5.459,5.458,5.459,14.34,0,19.799L24.929,42.87C24.539,43.261,24.026,43.456,23.515,43.456z M15.029,6.005   c-2.561,0-5.121,0.975-7.071,2.924c-3.898,3.899-3.898,10.244,0,14.143l15.557,15.557l15.557-15.557   c3.898-3.899,3.898-10.243,0-14.143c-3.899-3.898-10.243-3.897-14.143,0c-0.781,0.781-2.047,0.781-2.828,0   C20.151,6.979,17.59,6.005,15.029,6.005z" display="inline"/></g><g style="" display="none"><path style="" d="M45.96,5.61V5.6c-0.02-0.1-0.05-0.19-0.09-0.29c0-0.03-0.01-0.05-0.02-0.08   c-0.04-0.1-0.09-0.2-0.15-0.29c-0.05-0.07-0.1-0.15-0.16-0.21c-0.17-0.21-0.38-0.38-0.62-0.5c-0.05-0.03-0.09-0.05-0.14-0.07   C44.54,4.06,44.27,4,44,4H4C3.73,4,3.46,4.06,3.22,4.16C3.17,4.18,3.13,4.2,3.08,4.23c-0.24,0.12-0.45,0.29-0.62,0.5   C2.4,4.79,2.35,4.87,2.3,4.94C2.24,5.03,2.19,5.13,2.15,5.23C2.14,5.26,2.13,5.28,2.13,5.31C2.09,5.41,2.06,5.5,2.04,5.6v0.01   C2.01,5.74,2,5.87,2,6v32c0,0.14,0.02,0.28,0.05,0.42c0.01,0.06,0.02,0.12,0.04,0.17c0.12,0.39,0.35,0.73,0.69,0.99   c0.06,0.05,0.12,0.09,0.19,0.13c0.08,0.05,0.16,0.09,0.25,0.13C3.47,39.95,3.74,40,4,40h40c0.26,0,0.53-0.05,0.78-0.16   c0.09-0.04,0.17-0.08,0.25-0.13c0.07-0.04,0.13-0.08,0.19-0.13c0.34-0.26,0.57-0.6,0.69-0.99c0.02-0.05,0.03-0.11,0.04-0.17   C45.98,38.28,46,38.14,46,38V6C46,5.87,45.99,5.74,45.96,5.61z M39.17,8l-8.61,8.62L24,23.17l-6.56-6.55L8.83,8H39.17z M6,10.82   l7.49,7.49L6,30.79V10.82z M7.53,36l8.87-14.78l6.19,6.19C22.98,27.8,23.49,28,24,28s1.02-0.2,1.41-0.59l6.19-6.19L40.47,36H7.53z    M34.51,18.31L42,10.82v19.97L34.51,18.31z" display="inline"/></g><g style="" display="none"><path style="" d="M42.99,13.69L20.22,6.1c-0.5-0.16-1.05-0.13-1.53,0.11   c-0.47,0.24-0.83,0.65-1,1.16L14.15,18H4c-1.1,0-2,0.9-2,2v24c0,1.1,0.9,2,2,2h24c1.1,0,2-0.9,2-2v-5.13l4.14,1.38   c0.21,0.08,0.42,0.11,0.63,0.11c0.84,0,1.62-0.53,1.9-1.37l7.58-22.77C44.6,15.17,44.04,14.04,42.99,13.69z M26,42H6V22h6.81   l-2.71,8.14c-0.16,0.5-0.13,1.05,0.11,1.52c0.24,0.48,0.65,0.84,1.16,1.01L26,37.54V42z M33.5,35.83l-4.83-1.61L14.53,29.5   l2.98-8.94l3.34-10.03l18.98,6.32L33.5,35.83z" display="inline"/></g><g><path d="M32,46c-0.512,0-1.023-0.195-1.414-0.586l-20-20c-0.781-0.781-0.781-2.047,0-2.828l20-20   c0.781-0.781,2.047-0.781,2.828,0c0.781,0.781,0.781,2.047,0,2.828L14.829,24l18.585,18.586c0.781,0.781,0.781,2.047,0,2.828   C33.023,45.805,32.512,46,32,46z"/></g><text x="0" y="63" fill="#000000" font-size="5px" font-weight="bold" font-family="'Helvetica Neue', Helvetica, Arial-Unicode, Arial, Sans-serif">Created by Arash Bal</text><text x="0" y="68" fill="#000000" font-size="5px" font-weight="bold" font-family="'Helvetica Neue', Helvetica, Arial-Unicode, Arial, Sans-serif">from the Noun Project</text></svg>